<svg width="24" height="16" viewBox="0 0 24 16" fill="none" xmlns="http://www.w3.org/2000/svg">
<path d="M21.9972 15.7499L21.9994 15.7499C22.9545 15.7581 23.7381 14.9773 23.75 14.0042L23.75 2.0063C23.7462 1.53569 23.5589 1.08617 23.2297 0.756802C22.9014 0.428269 22.4589 0.246149 21.9972 0.250071L2.00064 0.250062C1.54109 0.246149 1.09858 0.428269 0.770279 0.756802C0.441145 1.08617 0.253838 1.53569 0.250008 2.00426L0.25 13.9937C0.253838 14.4643 0.441145 14.9138 0.770279 15.2432C1.09858 15.5717 1.54109 15.7538 2.00277 15.7499H21.9972ZM21.9962 16.2499C21.9958 16.2499 21.9955 16.2499 21.9951 16.2499L21.9972 16.2499H21.9962Z" fill="white" stroke="black" stroke-opacity="0.2" stroke-width="0.5"/>
<path d="M12.6124 16.0002H21.9973C22.524 16.0046 23.031 15.7995 23.4066 15.4301C23.7822 15.0607 23.9956 14.5573 24 14.0305V11.6719C20.4562 13.7062 16.6128 15.167 12.6124 16.0002Z" fill="#F27712"/>
<path d="M23.1724 9.29692H22.32L21.36 8.03072H21.269V9.29692H20.5738V6.15209H21.6C22.4027 6.15209 22.8662 6.48313 22.8662 7.07899C22.8662 7.56727 22.5765 7.88175 22.0552 7.98106L23.1724 9.29692ZM22.1462 7.10382C22.1462 6.79761 21.9145 6.64037 21.4841 6.64037H21.269V7.59209H21.4676C21.9145 7.59209 22.1462 7.42658 22.1462 7.10382ZM18.1407 6.15209H20.1103V6.68175H18.8358V7.3852H20.0607V7.92313H18.8358V8.77554H20.1103V9.3052H18.1407V6.15209ZM15.9062 9.37968L14.4 6.14382H15.1614L16.1131 8.26244L17.0731 6.14382H17.8179L16.2952 9.37968H15.9227H15.9062ZM9.60826 9.37141C8.54895 9.37141 7.72137 8.6514 7.72137 7.71623C7.72137 6.80589 8.56551 6.06934 9.62482 6.06934C9.92275 6.06934 10.171 6.12727 10.4772 6.25968V6.98796C10.2453 6.76013 9.93334 6.63236 9.60826 6.63209C8.9462 6.63209 8.44137 7.11209 8.44137 7.71623C8.44137 8.35347 8.93792 8.80865 9.64137 8.80865C9.95585 8.80865 10.1959 8.70934 10.4772 8.46106V9.18934C10.1627 9.32175 9.89792 9.37141 9.60826 9.37141ZM7.5062 8.33692C7.5062 8.94934 7.00137 9.37141 6.27309 9.37141C5.74344 9.37141 5.36275 9.18934 5.03999 8.77554L5.49516 8.38658C5.6524 8.66796 5.91723 8.80865 6.24827 8.80865C6.56275 8.80865 6.7862 8.6183 6.7862 8.37003C6.7862 8.22934 6.71999 8.12175 6.5793 8.03899C6.42504 7.96413 6.2644 7.9032 6.0993 7.85692C5.44551 7.65003 5.22206 7.42658 5.22206 6.98796C5.22206 6.47485 5.70206 6.08589 6.33102 6.08589C6.72827 6.08589 7.08413 6.21003 7.38206 6.44175L7.01792 6.85554C6.8736 6.69732 6.66932 6.6072 6.45516 6.60727C6.15723 6.60727 5.94206 6.75623 5.94206 6.95485C5.94206 7.12037 6.0662 7.21141 6.47999 7.35209C7.27447 7.60037 7.5062 7.83209 7.5062 8.3452V8.33692ZM4.08827 6.15209H4.78344V9.3052H4.08827V6.15209ZM1.85378 9.3052H0.827576V6.15209H1.85378C2.9793 6.15209 3.75723 6.79761 3.75723 7.72451C3.75723 8.19623 3.52551 8.64313 3.11999 8.94106C2.7724 9.18934 2.38344 9.3052 1.84551 9.3052H1.85378ZM2.66482 6.9383C2.43309 6.75623 2.16827 6.69003 1.71309 6.69003H1.52275V8.77554H1.71309C2.15999 8.77554 2.44137 8.69278 2.66482 8.52727C2.90482 8.32865 3.04551 8.03072 3.04551 7.72451C3.04551 7.4183 2.90482 7.12865 2.66482 6.9383Z" fill="black"/>
<path d="M12.4138 6.06934C11.5034 6.06934 10.7586 6.79761 10.7586 7.69968C10.7586 8.65968 11.4703 9.37968 12.4138 9.37968C13.3407 9.37968 14.069 8.6514 14.069 7.72451C14.069 6.79761 13.349 6.06934 12.4138 6.06934Z" fill="#F27712"/>
</svg>
