<svg width="736" height="900" viewBox="0 0 736 900" fill="none" xmlns="http://www.w3.org/2000/svg">
<mask id="mask0_529_982" style="mask-type:alpha" maskUnits="userSpaceOnUse" x="0" y="0" width="736" height="900">
<rect width="736" height="900" fill="#C4C4C4"/>
</mask>
<g mask="url(#mask0_529_982)">
</g>
<mask id="mask1_529_982" style="mask-type:alpha" maskUnits="userSpaceOnUse" x="0" y="0" width="736" height="900">
<rect width="736" height="900" fill="black"/>
</mask>
<g mask="url(#mask1_529_982)">
<rect width="736" height="900" fill="#EBFFF3"/>
<rect x="-51" y="258.839" width="664.05" height="664.05" fill="#35C971" fill-opacity="0.1"/>
<rect x="86.9175" y="108.226" width="664.05" height="664.05" fill="#35C971" fill-opacity="0.16"/>
<rect x="239.95" y="-14.9956" width="664.05" height="664.05" fill="#35C971" fill-opacity="0.1"/>
<rect x="222" y="765.835" width="664.05" height="664.05" fill="#21A858" fill-opacity="0.1"/>
<rect x="358.917" y="615.227" width="664.05" height="664.05" fill="#35C971" fill-opacity="0.13"/>
<rect x="512.95" y="492" width="664.05" height="664.05" fill="#35C971" fill-opacity="0.13"/>
<rect x="-564" y="-256.166" width="664.05" height="664.05" fill="#35C971" fill-opacity="0.2"/>
<rect x="-427.083" y="-406.774" width="664.05" height="664.05" fill="#35C971" fill-opacity="0.2"/>
<rect x="-285.05" y="-530" width="664.05" height="664.05" fill="#35C971" fill-opacity="0.1"/>
</g>
<path d="M429.498 537.6C412.887 537.61 396.298 536.392 379.869 533.956L374.906 533.168C317.733 524.108 290.437 508.646 282.297 503.623C282.074 503.455 281.801 503.364 281.521 503.363C281.241 503.362 280.967 503.452 280.743 503.619C280.519 503.786 280.355 504.021 280.278 504.288C280.2 504.556 280.212 504.841 280.312 505.101C286.035 532.254 301.043 556.609 322.795 574.038C291.528 584.576 253.314 600.727 234.653 548.039C234.629 547.87 234.571 547.707 234.483 547.561C234.394 547.415 234.277 547.287 234.138 547.186C234 547.085 233.842 547.013 233.675 546.973C233.507 546.934 233.334 546.928 233.164 546.956C232.825 546.981 232.501 547.107 232.235 547.318C231.97 547.529 231.774 547.814 231.675 548.137C230.763 552.91 230.298 557.756 230.286 562.614C230.387 573.271 232.79 583.782 237.333 593.439C212.986 596.256 188.423 596.75 163.981 594.916C247.259 428.088 241.204 440.693 242.594 438.625C254.994 447.293 269.098 453.266 283.985 456.155C297.268 458.286 310.845 457.782 323.93 454.671C337.015 451.561 349.348 445.906 360.215 438.034C360.321 437.91 360.378 437.753 360.378 437.591C360.378 437.429 360.321 437.272 360.215 437.148C360.16 437.085 360.091 437.035 360.014 437C359.937 436.966 359.853 436.948 359.769 436.948C359.684 436.948 359.601 436.966 359.524 437C359.447 437.035 359.378 437.085 359.322 437.148C336.876 448.134 311.209 450.789 286.962 444.633C276.291 441.913 266.425 436.715 258.177 429.466L295.201 411.838C295.377 411.71 295.505 411.528 295.566 411.32C295.627 411.112 295.617 410.889 295.538 410.687C295.459 410.486 295.315 410.315 295.129 410.203C294.942 410.09 294.723 410.042 294.506 410.065C262.942 418.83 228.4 418.83 195.247 384.952L235.646 375.104C235.987 375.017 236.29 374.82 236.506 374.544C236.722 374.267 236.84 373.928 236.84 373.578C236.84 373.228 236.722 372.888 236.506 372.611C236.29 372.335 235.987 372.138 235.646 372.051C211.823 370.968 166.065 364.271 148 316.113H419.175C421.947 316.118 424.684 316.733 427.188 317.913C429.692 319.092 431.902 320.808 433.658 322.936C435.414 325.065 436.672 327.553 437.343 330.221C438.014 332.89 438.081 335.673 437.538 338.37C430.193 374.021 420.565 440.89 477.242 457.731C485.894 460.328 493.5 465.566 498.979 472.7C504.437 479.836 507.368 488.56 507.317 497.518C593.573 473.488 581.464 339.946 506.325 337.976H492.329C487.163 337.945 482.089 336.62 477.578 334.123C473.066 331.627 469.263 328.04 466.522 323.696C463.408 318.913 461.753 313.338 461.757 307.644C461.757 306.462 461.757 305.28 461.757 304C512.677 317.197 525.581 318.181 536.698 323.696C547.732 329.77 557.452 337.94 565.303 347.741C573.154 357.541 578.983 368.78 582.456 380.816C603.301 446.307 568.758 537.6 429.498 537.6Z" fill="#24A859"/>
<path d="M510.891 423.166C515.55 423.166 519.328 415.229 519.328 405.439C519.328 395.648 515.55 387.712 510.891 387.712C506.231 387.712 502.454 395.648 502.454 405.439C502.454 415.229 506.231 423.166 510.891 423.166Z" fill="#24A859"/>
</svg>
