<svg width="239" height="31" viewBox="0 0 239 31" fill="none" xmlns="http://www.w3.org/2000/svg">
<path d="M30.3916 24.8C28.5982 24.801 26.8072 24.6717 25.0335 24.4132L24.4976 24.3295C18.325 23.3676 15.378 21.7261 14.4993 21.1929C14.4751 21.1751 14.4457 21.1654 14.4154 21.1653C14.3852 21.1652 14.3557 21.1747 14.3315 21.1925C14.3072 21.2102 14.2896 21.2351 14.2812 21.2635C14.2728 21.2919 14.2741 21.3222 14.2849 21.3497C14.9028 24.2325 16.5232 26.8181 18.8715 28.6685C15.4959 29.7872 11.3701 31.5019 9.3554 25.9083C9.35279 25.8903 9.34653 25.8731 9.33699 25.8575C9.32745 25.842 9.31482 25.8285 9.29985 25.8177C9.28487 25.807 9.26785 25.7993 9.24978 25.7951C9.23172 25.7909 9.21297 25.7903 9.19465 25.7933C9.15802 25.7959 9.12306 25.8093 9.09437 25.8317C9.06569 25.8541 9.04461 25.8844 9.03391 25.9187C8.93544 26.4254 8.88521 26.9399 8.88388 27.4557C8.89484 28.587 9.15429 29.7029 9.64474 30.7282C7.01614 31.0272 4.36421 31.0797 1.72534 30.885C10.7164 13.1737 10.0627 14.512 10.2127 14.2924C11.5515 15.2126 13.0742 15.8468 14.6814 16.1535C16.1155 16.3797 17.5813 16.3262 18.994 15.9959C20.4068 15.6657 21.7383 15.0654 22.9116 14.2297C22.923 14.2165 22.9292 14.1998 22.9292 14.1826C22.9292 14.1654 22.923 14.1488 22.9116 14.1356C22.9056 14.1289 22.8982 14.1236 22.8898 14.1199C22.8815 14.1162 22.8725 14.1143 22.8634 14.1143C22.8543 14.1143 22.8452 14.1162 22.8369 14.1199C22.8286 14.1236 22.8212 14.1289 22.8152 14.1356C20.3918 15.3019 17.6207 15.5838 15.0029 14.9302C13.8508 14.6415 12.7856 14.0896 11.8952 13.3201L15.8924 11.4486C15.9114 11.4349 15.9252 11.4156 15.9318 11.3935C15.9384 11.3714 15.9374 11.3479 15.9288 11.3264C15.9203 11.305 15.9047 11.2869 15.8846 11.275C15.8644 11.263 15.8408 11.2579 15.8174 11.2604C12.4096 12.1909 8.68027 12.1909 5.101 8.59427L9.46256 7.54874C9.49944 7.53952 9.53213 7.51859 9.55548 7.48925C9.57882 7.45991 9.59149 7.42382 9.59149 7.38668C9.59149 7.34953 9.57882 7.31345 9.55548 7.2841C9.53213 7.25476 9.49944 7.23383 9.46256 7.22462C6.89063 7.10961 1.95038 6.39865 0 1.286H29.2771C29.5764 1.28653 29.8719 1.35177 30.1422 1.47702C30.4126 1.60227 30.6511 1.78442 30.8407 2.01037C31.0303 2.23632 31.1662 2.50046 31.2386 2.78378C31.3111 3.06709 31.3183 3.36255 31.2597 3.6489C30.4667 7.43373 29.4272 14.5329 35.5462 16.3207C36.4803 16.5965 37.3016 17.1526 37.8931 17.91C38.4824 18.6675 38.7988 19.5937 38.7933 20.5447C48.1058 17.9936 46.7984 3.81619 38.6861 3.60708H37.1751C36.6174 3.60375 36.0696 3.46305 35.5825 3.19802C35.0954 2.93299 34.6848 2.55223 34.3889 2.09106C34.0526 1.58323 33.874 0.991413 33.8745 0.386847C33.8745 0.261383 33.8745 0.135919 33.8745 0C39.372 1.40101 40.7651 1.50557 41.9653 2.09106C43.1566 2.73585 44.206 3.60324 45.0536 4.64372C45.9013 5.6842 46.5306 6.87738 46.9056 8.15514C49.156 15.1079 45.4267 24.8 30.3916 24.8Z" fill="#24A859"/>
<path d="M39.179 12.6511C39.682 12.6511 40.0899 11.8085 40.0899 10.7692C40.0899 9.72979 39.682 8.88721 39.179 8.88721C38.6759 8.88721 38.2681 9.72979 38.2681 10.7692C38.2681 11.8085 38.6759 12.6511 39.179 12.6511Z" fill="#24A859"/>
<path d="M75.5398 7.88342C75.5398 13.707 70.9639 17.1677 64.0519 17.1677H61.0834L59.1438 24.6328H53.3569L59.2509 1.63114H66.7524C72.7643 1.59978 75.5398 4.18224 75.5398 7.88342ZM69.3565 8.78257C69.3565 7.17246 68.2848 6.35694 66.1416 6.35694H63.9018L62.2944 12.4628H64.6734C67.3847 12.4628 69.3565 11.3546 69.3565 8.78257Z" fill="#09351B"/>
<path d="M79.3011 17.4918C79.2851 17.7425 79.2851 17.9939 79.3011 18.2446C79.3011 20.0952 80.3727 20.7748 82.0016 20.7748C82.6192 20.7813 83.2278 20.6304 83.7672 20.337C84.3066 20.0436 84.7582 19.6179 85.0772 19.1019L89.3638 20.6702C88.5956 22.0484 87.4457 23.188 86.0454 23.9589C84.645 24.7299 83.0506 25.1011 81.4444 25.0301C76.9435 25.0301 74.1572 22.709 74.1572 18.3805C74.1572 12.9228 78.1866 7.24561 83.8877 7.24561C90.3175 7.24561 91.9036 12.4733 89.6424 17.4918H79.3011ZM80.0727 14.2402H85.3344C85.7095 12.1491 85.0451 11.1036 83.6198 11.1036C82.023 11.1036 80.7692 12.5464 80.0834 14.2402H80.0727Z" fill="#09351B"/>
<path d="M104.345 7.31889L102.77 13.2784H101.527C100.261 13.2758 98.9971 13.3949 97.7547 13.6339L94.9363 24.6329H89.5781L93.8647 7.67437H98.5906L98.0012 11.1351L98.3013 11.2396C100.284 8.42716 101.806 7.31889 103.649 7.31889C103.881 7.30125 104.113 7.30125 104.345 7.31889Z" fill="#09351B"/>
<path d="M130.033 20.4611L128.865 24.6432C128.002 24.8494 127.116 24.9443 126.228 24.9255C123.56 24.9255 122.499 23.6082 122.499 21.6112C122.536 20.5088 122.719 19.4157 123.046 18.3596L123.999 14.6166C124.439 12.9647 123.881 12.0028 122.928 12.0028C122.347 12.0465 121.781 12.2054 121.265 12.4696C120.749 12.7339 120.294 13.098 119.927 13.5397C119.897 13.7554 119.851 13.9686 119.788 14.1775L117.034 24.6328H111.675L114.183 14.6375C114.622 12.9856 114.076 12.0237 113.111 12.0237C112.505 12.0712 111.915 12.2418 111.38 12.5244C110.845 12.8071 110.376 13.1956 110.004 13.6652L107.164 24.6328H101.806L106.092 7.67427H110.85L110.379 10.5286L110.711 10.6749C112.533 8.13431 114.333 7.24561 116.305 7.24561C118.448 7.24561 119.67 8.74072 120.002 10.6749L120.291 10.8109C122.199 8.20749 124.031 7.24561 126.335 7.24561C129.55 7.24561 130.622 10.2776 129.625 14.167L128.382 18.7046C128.275 19.0452 128.203 19.3955 128.168 19.7502C128.168 20.2416 128.425 20.5343 129.111 20.5343C129.42 20.5359 129.728 20.5114 130.033 20.4611Z" fill="#09351B"/>
<path d="M136.591 18.7046C136.487 19.0446 136.426 19.3957 136.409 19.7501C136.409 20.2415 136.655 20.5342 137.352 20.5342C137.672 20.5273 137.992 20.4923 138.306 20.4297L137.137 24.6118C136.275 24.8174 135.389 24.9123 134.501 24.8941C131.833 24.8941 130.772 23.5767 130.772 21.5798C130.809 20.4773 130.992 19.3843 131.319 18.3282L134.03 7.6533H139.388L136.591 18.7046ZM134.244 3.63846C134.353 2.89079 134.735 2.20667 135.32 1.71175C135.905 1.21682 136.653 0.944336 137.427 0.944336C138.201 0.944336 138.949 1.21682 139.534 1.71175C140.118 2.20667 140.5 2.89079 140.61 3.63846C140.5 4.38613 140.118 5.07025 139.534 5.56517C138.949 6.06009 138.201 6.33258 137.427 6.33258C136.653 6.33258 135.905 6.06009 135.32 5.56517C134.735 5.07025 134.353 4.38613 134.244 3.63846Z" fill="#09351B"/>
<path d="M146.568 18.6002C146.268 19.7398 146.675 20.4612 147.736 20.4612C148.571 20.4311 149.392 20.2354 150.147 19.8862L150.404 24.3088C149.059 24.8084 147.632 25.0636 146.193 25.0615C141.906 25.0615 140.191 22.1341 141.22 18.2029L142.871 11.8565H139.795L140.781 7.85211L142.099 7.67437C143.674 7.4548 144.328 6.81703 144.949 5.10236L146.021 1.89258H150.736L149.279 7.67437H153.662L152.59 11.8565H148.207L146.568 18.6002Z" fill="#09351B"/>
<path d="M178.878 7.88342C178.878 13.707 174.302 17.1677 167.39 17.1677H164.389L162.449 24.6328H156.663L162.557 1.63114H170.058C176.091 1.59978 178.878 4.18224 178.878 7.88342ZM172.694 8.78257C172.694 7.17246 171.623 6.35694 169.479 6.35694H167.25L165.643 12.4628H168.022C170.712 12.4628 172.694 11.3546 172.694 8.78257Z" fill="#09351B"/>
<path d="M183.25 18.7045C183.144 19.0443 183.079 19.3953 183.057 19.75C183.057 20.2414 183.314 20.5342 184.011 20.5342C184.331 20.5248 184.65 20.4898 184.965 20.4296L183.797 24.6118C182.934 24.8174 182.048 24.9123 181.16 24.894C178.449 24.894 177.388 23.5767 177.388 21.5797C177.442 20.4758 177.64 19.3832 177.978 18.3281L182.264 1.59961H187.622L183.25 18.7045Z" fill="#09351B"/>
<path d="M203.182 20.5655C203.517 20.5628 203.848 20.5136 204.168 20.4192L203.032 24.6013C202.288 24.8314 201.509 24.9409 200.728 24.9254C200.265 24.973 199.797 24.922 199.356 24.7757C198.915 24.6294 198.512 24.3915 198.175 24.0782C197.838 23.765 197.574 23.3841 197.402 22.9617C197.231 22.5393 197.155 22.0856 197.181 21.632V21.5588L196.817 21.4229C195.574 23.6289 193.709 25.0613 191.587 25.0613C188.372 25.0613 186.058 22.7402 186.058 18.7881C186.058 13.5605 189.498 7.22456 194.834 7.22456C195.754 7.21328 196.663 7.42177 197.481 7.83182C198.299 8.24186 199.002 8.84102 199.528 9.577L199.85 9.44108L200.439 7.65322H205.165L202.379 18.6836C202.269 19.0241 202.193 19.3742 202.154 19.7291C202.186 20.2728 202.539 20.5655 203.182 20.5655ZM196.956 18.8195L198.349 13.32C198.084 12.845 197.691 12.4487 197.214 12.1727C196.737 11.8967 196.193 11.7513 195.638 11.7517C193.366 11.7517 191.941 15.1392 191.941 17.9622C191.941 19.5723 192.605 20.3564 193.881 20.3564C195.07 20.2495 196.172 19.699 196.956 18.8195Z" fill="#09351B"/>
<path d="M205.187 18.9242C205.187 12.7137 209.323 7.24561 215.174 7.24561C219.279 7.24561 221.765 9.63987 221.175 13.9893L216.16 14.2402C216.385 12.996 216.385 11.7414 214.81 11.7414C212.463 11.7414 210.78 15.3171 210.78 18.14C210.78 19.6665 211.477 20.3879 212.87 20.3879C214.006 20.3879 214.735 19.7397 215.399 18.3805L219.975 19.9174C218.175 23.7755 215.249 25.0928 212.184 25.0928C207.716 25.0928 205.187 22.6672 205.187 18.9242Z" fill="#09351B"/>
<path d="M226.737 17.4918C226.721 17.7425 226.721 17.9939 226.737 18.2446C226.737 20.0952 227.809 20.7748 229.448 20.7748C230.066 20.7803 230.674 20.6289 231.213 20.3356C231.752 20.0423 232.204 19.6172 232.524 19.1019L236.81 20.6702C236.041 22.0517 234.887 23.1935 233.483 23.9646C232.078 24.7358 230.479 25.1051 228.87 25.0301C224.369 25.0301 221.583 22.709 221.583 18.3805C221.583 12.9228 225.612 7.24561 231.324 7.24561C237.754 7.24561 239.34 12.4733 237.068 17.4918H226.737ZM227.509 14.2402H232.781C233.145 12.1491 232.492 11.1036 231.056 11.1036C229.448 11.1036 228.259 12.5464 227.509 14.2402Z" fill="#09351B"/>
</svg>
